<svg width="32" height="32" viewBox="0 0 32 32" fill="none" xmlns="http://www.w3.org/2000/svg">
<path d="M15.9698 7.78034e-05C15.9275 4.31957e-05 15.8852 0.000181672 15.843 0.000475837C8.71302 -0.0581149 2.00379 5.30099 0.437449 12.2611C-1.07364 18.3919 1.41646 25.2823 6.5728 28.947C11.698 32.7399 19.1189 33.0571 24.4846 29.5708C29.7568 26.2902 32.8144 19.7925 31.8101 13.6344C30.9062 7.38601 26.0204 1.92028 19.8596 0.475795C18.5889 0.157404 17.2794 0.00087378 15.9698 7.78034e-05ZM15.7886 1.72631C15.9042 1.72584 16.0199 1.72691 16.1357 1.72958C22.7611 1.66261 28.9589 6.88444 30.0266 13.4344C31.1568 19.3512 28.1181 25.7977 22.7645 28.5907C17.2909 31.6068 9.89807 30.4772 5.64809 25.8611C1.2908 21.3584 0.444258 13.8911 3.802 8.57304C6.29466 4.45507 10.9707 1.74534 15.7886 1.72629V1.72631ZM16.072 3.28232C15.955 3.28215 15.838 3.28374 15.721 3.2871C9.62025 3.2871 4.02994 8.34232 3.37457 14.4153C2.59419 20.1062 6.16965 26.0418 11.5935 27.9523C16.7319 29.8966 23.0094 28.0528 26.2169 23.5665C29.6782 18.9772 29.4791 12.0137 25.6205 7.71535C23.2613 4.96514 19.6974 3.28723 16.072 3.28232ZM15.9943 4.97894C16.0723 4.97907 16.1502 4.98005 16.2282 4.98189C21.6283 4.98189 26.5494 9.54425 26.9616 14.9368C27.5245 20.0736 24.0037 25.3136 18.9906 26.629C14.1592 28.0401 8.53445 25.6932 6.24544 21.1767C3.78175 16.612 5.04516 10.3679 9.25862 7.27585C11.1712 5.79525 13.5771 4.97531 15.9943 4.97894ZM10.6424 9.2509V22.7491H21.3576V9.2509H10.6424ZM11.5045 10.1173H20.4922V21.8825H11.5045V10.1173H11.5045ZM12.432 11.4418V12.305H19.5647V11.4418H12.432ZM12.432 14.0478V14.9144H19.5647V14.0478H12.432ZM12.432 17.0594V17.9227H19.5647V17.0594H12.432ZM12.432 19.7799V20.6433H19.5647V19.7799H12.432Z" fill="#192340"/>
</svg>
