<svg width="32" height="32" viewBox="0 0 32 32" fill="none" xmlns="http://www.w3.org/2000/svg">
<path d="M6.85708 8.82759C5.95293 8.82759 5.06909 8.56872 4.31733 8.08373C3.56556 7.59874 2.97963 6.9094 2.63363 6.10288C2.28763 5.29637 2.1971 4.4089 2.37349 3.55271C2.54987 2.69652 2.98526 1.91005 3.62459 1.29277C4.26391 0.675492 5.07846 0.255119 5.96523 0.0848118C6.852 -0.0854954 7.77117 0.00191241 8.60649 0.335982C9.4418 0.670052 10.1558 1.23578 10.6581 1.96162C11.1604 2.68747 11.4285 3.54083 11.4285 4.41379C11.4285 5.58441 10.9469 6.70707 10.0896 7.53482C9.23225 8.36257 8.06949 8.82759 6.85708 8.82759ZM6.85708 2.2069C6.405 2.2069 5.96308 2.33633 5.5872 2.57883C5.21132 2.82132 4.91835 3.16599 4.74535 3.56925C4.57235 3.97251 4.52709 4.41624 4.61528 4.84434C4.70347 5.27244 4.92117 5.66567 5.24083 5.97431C5.56049 6.28295 5.96777 6.49313 6.41115 6.57829C6.85454 6.66344 7.31412 6.61974 7.73178 6.4527C8.14944 6.28567 8.50642 6.0028 8.75758 5.63988C9.00873 5.27696 9.14279 4.85028 9.14279 4.41379C9.14279 3.82849 8.90197 3.26716 8.47332 2.85328C8.04466 2.43941 7.46328 2.2069 6.85708 2.2069Z" fill="#192340"/>
<path d="M25.1427 8.82759C24.2386 8.82759 23.3547 8.56872 22.603 8.08373C21.8512 7.59874 21.2653 6.9094 20.9193 6.10288C20.5733 5.29637 20.4827 4.4089 20.6591 3.55271C20.8355 2.69652 21.2709 1.91005 21.9102 1.29277C22.5496 0.675492 23.3641 0.255119 24.2509 0.0848118C25.1376 -0.0854954 26.0568 0.00191241 26.8921 0.335982C27.7274 0.670052 28.4414 1.23578 28.9437 1.96162C29.446 2.68747 29.7141 3.54083 29.7141 4.41379C29.7141 5.58441 29.2325 6.70707 28.3752 7.53482C27.5179 8.36257 26.3551 8.82759 25.1427 8.82759ZM25.1427 2.2069C24.6906 2.2069 24.2487 2.33633 23.8728 2.57883C23.497 2.82132 23.204 3.16599 23.031 3.56925C22.858 3.97251 22.8127 4.41624 22.9009 4.84434C22.9891 5.27244 23.2068 5.66567 23.5265 5.97431C23.8461 6.28295 24.2534 6.49313 24.6968 6.57829C25.1402 6.66344 25.5998 6.61974 26.0174 6.4527C26.4351 6.28567 26.7921 6.0028 27.0432 5.63988C27.2944 5.27696 27.4284 4.85028 27.4284 4.41379C27.4284 3.82849 27.1876 3.26716 26.759 2.85328C26.3303 2.43941 25.7489 2.2069 25.1427 2.2069Z" fill="#192340"/>
<path d="M27.4286 31.9999H22.8571C22.2509 31.9999 21.6696 31.7674 21.2409 31.3535C20.8122 30.9396 20.5714 30.3783 20.5714 29.793V22.0688H22.8571V29.793H27.4286V19.8619H29.7143V13.2413C29.7143 12.9486 29.5939 12.6679 29.3796 12.461C29.1652 12.2541 28.8745 12.1378 28.5714 12.1378H21.2343L16 20.9654L10.7657 12.1378H3.42857C3.12547 12.1378 2.83478 12.2541 2.62045 12.461C2.40612 12.6679 2.28571 12.9486 2.28571 13.2413V19.8619H4.57143V29.793H9.14286V22.0688H11.4286V29.793C11.4286 30.3783 11.1878 30.9396 10.7591 31.3535C10.3304 31.7674 9.74907 31.9999 9.14286 31.9999H4.57143C3.96522 31.9999 3.38384 31.7674 2.95518 31.3535C2.52653 30.9396 2.28571 30.3783 2.28571 29.793V22.0688C1.67951 22.0688 1.09812 21.8363 0.66947 21.4225C0.240816 21.0086 0 20.4472 0 19.8619V13.2413C0 12.3633 0.361224 11.5213 1.00421 10.9005C1.64719 10.2797 2.51926 9.93091 3.42857 9.93091H12.0914L16 16.5516L19.9086 9.93091H28.5714C29.4807 9.93091 30.3528 10.2797 30.9958 10.9005C31.6388 11.5213 32 12.3633 32 13.2413V19.8619C32 20.4472 31.7592 21.0086 31.3305 21.4225C30.9019 21.8363 30.3205 22.0688 29.7143 22.0688V29.793C29.7143 30.3783 29.4735 30.9396 29.0448 31.3535C28.6162 31.7674 28.0348 31.9999 27.4286 31.9999Z" fill="#192340"/>
</svg>
