<svg width="32" height="32" viewBox="0 0 32 32" fill="none" xmlns="http://www.w3.org/2000/svg">
<path fill-rule="evenodd" clip-rule="evenodd" d="M0 0H27.5556V4.44409H25.7778V1.77763H1.77778V22.2204H20.7885V23.9981H0V0ZM26.6667 11.5546C27.374 11.5546 28.0523 11.2737 28.5524 10.7736C29.0525 10.2736 29.3334 9.59536 29.3334 8.88818C29.3334 8.18099 29.0525 7.50276 28.5524 7.00271C28.0523 6.50265 27.374 6.22172 26.6667 6.22172C25.9595 6.22172 25.2812 6.50265 24.7811 7.00271C24.281 7.50276 24.0001 8.18099 24.0001 8.88818C24.0001 9.59536 24.281 10.2736 24.7811 10.7736C25.2812 11.2737 25.9595 11.5546 26.6667 11.5546ZM28.4721 13.3412C29.6267 13.3412 30.5405 13.8602 31.1387 14.6619C31.6979 15.413 31.9343 16.3418 31.9876 17.1995C32.0419 18.0697 31.9165 18.9816 31.6348 19.7949C31.3681 20.5681 30.9174 21.3681 30.2223 21.9165V30.6642C30.2229 30.9992 30.0975 31.3221 29.8708 31.5688C29.6442 31.8155 29.333 31.9678 28.9991 31.9954C28.6652 32.0231 28.3332 31.9241 28.069 31.7181C27.8049 31.5121 27.6279 31.2142 27.5734 30.8837L26.4267 23.9981H26.1618L24.8658 30.9095C24.8043 31.2357 24.6233 31.5272 24.3582 31.727C24.0931 31.9268 23.763 32.0206 23.4324 31.9899C23.1019 31.9592 22.7946 31.8063 22.5708 31.5612C22.347 31.316 22.2227 30.9962 22.2223 30.6642V17.9834C22.0445 18.2542 21.8691 18.5265 21.6961 18.8003L21.6267 18.9096L21.6089 18.938L21.6045 18.946C21.4847 19.1384 21.3179 19.297 21.1197 19.407C20.9216 19.5169 20.6987 19.5745 20.4721 19.5744H16.0276C15.674 19.5744 15.3348 19.434 15.0848 19.1839C14.8347 18.9339 14.6943 18.5948 14.6943 18.2412C14.6943 17.8876 14.8347 17.5485 15.0848 17.2985C15.3348 17.0484 15.674 16.908 16.0276 16.908H19.7405C19.9565 16.5738 20.2409 16.14 20.5396 15.7045C20.8507 15.2503 21.1938 14.7695 21.4996 14.3926C21.6481 14.2086 21.8143 14.0167 21.9814 13.8593C22.0632 13.782 22.1769 13.6816 22.3156 13.5927C22.5603 13.4321 22.846 13.3451 23.1387 13.342H28.4721V13.3412Z" fill="#192340"/>
</svg>
